#!OML:ASF I:\Actors\actors\Patient Classification 1\Patient 1\Session 1\Subject1.ASF
:FULLY-SPECIFIED
:DEGREES
659
root 0.572234 17.5411 9.22513 8.30636 -1.63106 -9.53772
lowerback 0.864246 1.21442 6.67887
upperback -8.7021 2.10519 0.78499
thorax -9.5318 0.542586 -3.0797
lowerneck -5.15587 -2.79458 -1.80711
upperneck 31.366 -6.37914 8.61924
head 11.3551 -2.16322 2.79195
rclavicle 9.93923e-017 2.38542e-015
rhumerus 34.8203 -0.685268 -43.0839
rradius 124.215
rwrist 0.665625
rhand -14.3861 -38.6181
rfingers 7.12502
rthumb 11.7568 -68.2681
lclavicle 9.93923e-017 2.38542e-015
lhumerus 24.829 -17.91 55.0236
lradius 135.187
lwrist -0.120038
lhand -48.9698 -45.102
lfingers 7.12502
lthumb -21.6001 -16.2867
rfemur -6.48821 20.8682 26.5172
rtibia 7.66485
rfoot -11.8116 -19.7641
rtoes -0.597036
lfemur 7.66846 -45.5282 -12.8799
ltibia -4.93509
lfoot -21.6144 53.1511
ltoes 9.05349
660
root 0.567329 17.5418 9.22142 8.32315 -1.69781 -9.56387
lowerback 0.926721 1.17753 6.49234
upperback -8.71427 2.05687 0.873033
thorax -9.59325 0.535372 -2.87977
lowerneck -5.31484 -2.76447 -1.81544
upperneck 31.4482 -6.35271 8.64149
head 11.4195 -2.1434 2.80494
rclavicle -1.61016e-014 -2.46493e-014
rhumerus 34.387 -0.306238 -43.4929
rradius 124.705
rwrist 1.17544
rhand -15.2385 -39.1914
rfingers 7.12502
rthumb 10.9347 -68.8867
lclavicle -1.61016e-014 -2.46493e-014
lhumerus 25.4188 -17.4949 54.5302
lradius 134.89
lwrist 0.868042
lhand -49.1194 -44.7533
lfingers 7.12502
lthumb -21.7437 -15.9546
rfemur -6.48366 20.8372 26.5475
rtibia 7.58013
rfoot -11.7134 -19.6732
rtoes -0.836376
lfemur 7.74194 -45.7838 -12.9306
ltibia -4.91133
lfoot -22.1244 53.3997
ltoes 9.63879
661
root 0.562899 17.5415 9.21721 8.33214 -1.7606 -9.61087
lowerback 0.977736 1.15285 6.33514
upperback -8.73246 2.02705 0.974208
thorax -9.65273 0.535698 -2.68338
lowerneck -5.10203 -2.75885 -1.65219
upperneck 31.1296 -6.27148 8.41788
head 11.2306 -2.12737 2.69555
rclavicle 4.96962e-015 -4.45278e-014
rhumerus 33.7862 0.183929 -43.9175
rradius 125.124
rwrist 2.11695
rhand -16.3252 -39.7771
rfingers 7.12502
rthumb 9.88644 -69.5249
lclavicle 4.96962e-015 -4.45278e-014
lhumerus 25.9898 -17.0669 54.0551
lradius 134.519
lwrist 1.5416
lhand -49.5839 -44.7535
lfingers 7.12502
lthumb -22.1897 -16.0071
rfemur -6.45081 20.9218 26.6121
rtibia 7.47138
rfoot -11.6324 -19.6729
rtoes -0.995165
lfemur 7.76896 -45.8947 -12.8999
ltibia -4.90048
lfoot -22.4265 53.5275
ltoes 9.88187
662
root 0.558491 17.541 9.21299 8.34071 -1.85516 -9.63426
lowerback 1.06472 1.14364 6.15042
upperback -8.76395 2.02011 1.07865
thorax -9.74707 0.548393 -2.47121
lowerneck -5.08654 -2.73069 -1.71907
upperneck 31.1039 -6.22689 8.44851
head 11.2171 -2.11258 2.72335
rclavicle -6.06293e-015 8.74653e-015
rhumerus 33.1335 0.713588 -44.3724
rradius 125.61
rwrist 3.18402
rhand -17.2821 -40.405
rfingers 7.12502
rthumb 8.9631 -70.1946
lclavicle -6.06293e-015 8.74653e-015
lhumerus 26.5072 -16.5397 53.6735
lradius 134.193
lwrist 2.12167
lhand -49.7556 -44.97
lfingers 7.12502
lthumb -22.3545 -16.2433
rfemur -6.43109 20.9825 26.6448
rtibia 7.38261
rfoot -11.5852 -19.6465
rtoes -0.998083
lfemur 7.79171 -45.9064 -12.8794
ltibia -4.89994
lfoot -22.5552 53.6093
ltoes 9.85144
663
root 0.552832 17.5415 9.20775 8.34286 -2.00089 -9.59917
lowerback 1.19383 1.13443 5.86448
upperback -8.79406 2.00972 1.18501
thorax -9.86709 0.567153 -2.20144
lowerneck -5.12091 -2.68476 -1.81286
upperneck 31.134 -6.16872 8.51417
head 11.2367 -2.08797 2.77137
rclavicle -8.15017e-015 -2.8625e-014
rhumerus 32.5098 1.31059 -44.7623
rradius 126.265
rwrist 4.27956
rhand -18.0139 -41.2122
rfingers 7.12502
rthumb 8.25695 -71.0308
lclavicle -8.15017e-015 -2.8625e-014
lhumerus 27.0667 -15.8396 53.3629
lradius 133.916
lwrist 3.14557
lhand -49.7155 -45.3016
lfingers 7.12502
lthumb -22.316 -16.5703
rfemur -6.4344 20.9278 26.603
rtibia 7.33845
rfoot -11.5481 -19.4879
rtoes -1.00272
lfemur 7.82113 -45.8942 -12.9489
ltibia -4.84241
lfoot -22.9944 53.6236
ltoes 10.3282
664
root 0.546718 17.5426 9.19988 8.35363 -2.13234 -9.52525
lowerback 1.3421 1.13737 5.55586
upperback -8.83042 2.01102 1.24039
thorax -10.0036 0.590909 -1.97498
lowerneck -5.02788 -2.61997 -1.74636
upperneck 31.0676 -6.08322 8.53238
head 11.1846 -2.04343 2.77543
rclavicle 1.31198e-014 -1.51076e-014
rhumerus 31.7729 2.07491 -45.1677
rradius 127.003
rwrist 5.53766
rhand -18.6512 -42.3078
rfingers 7.12502
rthumb 7.64181 -72.1497
lclavicle 1.31198e-014 -1.51076e-014
lhumerus 27.7819 -15.0598 53.073
lradius 133.692
lwrist 4.82655
lhand -49.4362 -45.0316
lfingers 7.12502
lthumb -22.0479 -16.2684
rfemur -6.47958 20.8092 26.5106
rtibia 7.32302
rfoot -11.4717 -19.2921
rtoes -1.50195
lfemur 7.7391 -45.7474 -12.9648
ltibia -4.76555
lfoot -23.2836 53.4948
ltoes 10.7714
665
root 0.541636 17.5439 9.19231 8.38771 -2.15785 -9.46357
lowerback 1.44802 1.118 5.28463
upperback -8.85669 1.977 1.25672
thorax -10.1043 0.594107 -1.80637
lowerneck -5.0267 -2.60039 -1.67304
upperneck 31.0854 -6.09325 8.61245
head 11.1934 -2.0303 2.79178
rclavicle 2.72335e-014 -1.27222e-014
rhumerus 30.902 2.95851 -45.6584
rradius 127.852
rwrist 6.46607
rhand -19.3695 -43.5521
rfingers 7.12502
rthumb 6.94849 -73.4181
lclavicle 2.72335e-014 -1.27222e-014
lhumerus 28.701 -14.0872 52.7981
lradius 133.403
lwrist 6.77179
lhand -48.7525 -44.1527
lfingers 7.12502
lthumb -21.3913 -15.3136
rfemur -6.56094 20.7267 26.4263
rtibia 7.31411
rfoot -11.4326 -19.2169
rtoes -1.93197
lfemur 7.54996 -45.6147 -12.8818
ltibia -4.69096
lfoot -23.1798 53.3808
ltoes 10.6717
666
root 0.536456 17.5455 9.18617 8.41823 -2.10579 -9.47066
lowerback 1.52037 1.05612 5.02972
upperback -8.85695 1.88615 1.31609
thorax -10.1604 0.572233 -1.59416
lowerneck -5.12916 -2.62332 -1.73463
upperneck 31.23 -6.17941 8.76152
head 11.2849 -2.05406 2.8515
rclavicle 1.09332e-015 1.27222e-014
rhumerus 29.9116 3.97763 -46.1344
rradius 128.914
rwrist 6.95891
rhand -20.2075 -44.7118
rfingers 7.12502
rthumb 6.13949 -74.6028
lclavicle 1.09332e-015 1.27222e-014
lhumerus 29.7319 -12.9347 52.5437
lradius 132.839
lwrist 8.19942
lhand -48.1678 -43.6486
lfingers 7.12502
lthumb -20.8296 -14.7467
rfemur -6.62455 20.6541 26.4255
rtibia 7.28447
rfoot -11.4288 -19.1904
rtoes -1.88552
lfemur 7.40646 -45.6268 -12.7478
ltibia -4.66278
lfoot -23.0489 53.3657
ltoes 10.5996
667
root 0.529082 17.5468 9.18104 8.39709 -2.0828 -9.55338
lowerback 1.61209 1.02244 4.79622
upperback -8.84031 1.83728 1.40137
thorax -10.2065 0.571073 -1.37043
lowerneck -5.04765 -2.6699 -1.6904
upperneck 31.2657 -6.2534 8.74423
head 11.2862 -2.0865 2.83071
rclavicle 3.47873e-015 -2.70347e-014
rhumerus 28.723 5.38985 -46.6718
rradius 130.073
rwrist 7.84298
rhand -20.9047 -45.4484
rfingers 7.12502
rthumb 5.46637 -75.3579
lclavicle 3.47873e-015 -2.70347e-014
lhumerus 30.8144 -11.8417 52.3867
lradius 132.041
lwrist 9.19582
lhand -48.1518 -42.7351
lfingers 7.12502
lthumb -20.8143 -13.8315
rfemur -6.61164 20.6027 26.5481
rtibia 7.26834
rfoot -11.4342 -19.1476
rtoes -1.90681
lfemur 7.45308 -45.7495 -12.6494
ltibia -4.69858
lfoot -23.032 53.4573
ltoes 10.7225
668
root 0.520201 17.5473 9.17669 8.35884 -2.08591 -9.64249
lowerback 1.68404 1.03045 4.57682
upperback -8.81603 1.84067 1.45018
thorax -10.2275 0.593239 -1.19819
lowerneck -4.96188 -2.7031 -1.74494
upperneck 31.2752 -6.2932 8.74893
head 11.2771 -2.11282 2.83893
rclavicle -1.46107e-014 2.94201e-014
rhumerus 26.7339 7.0795 -47.4344
rradius 130.866
rwrist 9.31597
rhand -21.6803 -45.0995
rfingers 7.12502
rthumb 4.71749 -75.0269
lclavicle -1.46107e-014 2.94201e-014
lhumerus 31.9749 -10.8431 52.3014
lradius 131.132
lwrist 10.3268
lhand -48.3672 -41.3934
lfingers 7.12502
lthumb -21.0212 -12.5127
rfemur -6.58519 20.6178 26.6963
rtibia 7.2993
rfoot -11.4639 -19.1341
rtoes -2.06559
lfemur 7.51218 -45.7584 -12.5416
ltibia -4.72459
lfoot -23.0747 53.4679
ltoes 10.6675
669
root 0.512887 17.5476 9.17196 8.35833 -2.06704 -9.73803
lowerback 1.69868 1.01622 4.40788
upperback -8.77744 1.81306 1.49953
thorax -10.1986 0.597336 -1.04901
lowerneck -4.97396 -2.69859 -1.79903
upperneck 31.3593 -6.30721 8.81964
head 11.3181 -2.11521 2.87567
rclavicle -8.54774e-015 1.98785e-014
rhumerus 25.6509 8.66822 -48.0028
rradius 131.991
rwrist 10.6481
rhand -22.0394 -45.8259
rfingers 7.12502
rthumb 4.37074 -75.7608
lclavicle -8.54774e-015 1.98785e-014
lhumerus 33.0893 -9.82783 52.235
lradius 130.187
lwrist 11.4349
lhand -48.2994 -41.3083
lfingers 7.12502
lthumb -20.9561 -12.4204
rfemur -6.61805 20.6381 26.8273
rtibia 7.33629
rfoot -11.4443 -19.1319
rtoes -2.17519
lfemur 7.46381 -45.7162 -12.3494
ltibia -4.72772
lfoot -23.3692 53.3859
ltoes 10.8395
